<svg width="461" height="107" viewBox="0 0 461 107" fill="none" xmlns="http://www.w3.org/2000/svg">
<path d="M17.9203 19.241C21.179 19.241 23.6386 19.946 25.2993 21.356C26.96 22.766 27.7903 24.646 27.7903 26.996C27.7903 27.372 27.7276 27.9987 27.6023 28.876C27.195 31.132 26.1923 33.1217 24.5943 34.845C22.9963 36.5683 20.85 37.712 18.1553 38.276L23.9363 52H18.8133L13.3613 38.605H8.23829L5.84129 52H1.56429L7.39229 19.241H17.9203ZM23.1843 28.876C23.2783 28.312 23.3253 27.795 23.3253 27.325C23.3253 25.821 22.824 24.6617 21.8213 23.847C20.85 23.0323 19.346 22.625 17.3093 22.625H11.0583L8.84929 35.174H15.1473C17.466 35.174 19.299 34.61 20.6463 33.482C21.9936 32.3227 22.8396 30.7873 23.1843 28.876ZM45.904 25.821C48.066 25.821 49.9303 26.244 51.497 27.09C53.095 27.9047 54.3013 29.064 55.116 30.568C55.962 32.0407 56.385 33.7327 56.385 35.644C56.385 36.302 56.3067 37.101 56.15 38.041C56.0247 38.8557 55.821 39.7017 55.539 40.579H34.953C34.8903 41.2057 34.859 41.66 34.859 41.942C34.859 44.104 35.5013 45.796 36.786 47.018C38.102 48.2087 39.8097 48.804 41.909 48.804C43.7577 48.804 45.3713 48.381 46.75 47.535C48.16 46.6577 49.2253 45.4983 49.946 44.057H54.552C53.424 46.5323 51.685 48.5533 49.335 50.12C47.0163 51.6553 44.3217 52.423 41.251 52.423C38.0237 52.423 35.423 51.4987 33.449 49.65C31.5063 47.77 30.535 45.2163 30.535 41.989C30.535 41.0803 30.629 40.109 30.817 39.075C31.287 36.4117 32.2427 34.0773 33.684 32.072C35.1253 30.0667 36.8957 28.5313 38.995 27.466C41.1257 26.3693 43.4287 25.821 45.904 25.821ZM51.826 37.477C51.92 36.8503 51.967 36.2707 51.967 35.738C51.967 33.7327 51.3247 32.1817 50.04 31.085C48.7867 29.9883 47.1417 29.44 45.105 29.44C42.9117 29.44 40.922 30.1607 39.136 31.602C37.35 33.012 36.1437 34.9703 35.517 37.477H51.826ZM68.3755 52.423C65.6809 52.423 63.4719 51.7807 61.7485 50.496C60.0252 49.2113 59.1635 47.488 59.1635 45.326C59.1635 44.9187 59.1792 44.621 59.2105 44.433H63.3935C63.2682 45.7803 63.6599 46.877 64.5685 47.723C65.5085 48.569 66.8559 48.992 68.6105 48.992C70.3652 48.992 71.7752 48.663 72.8405 48.005C73.9372 47.3157 74.4855 46.36 74.4855 45.138C74.4855 44.104 74.0469 43.2893 73.1695 42.694C72.2922 42.0987 70.9449 41.4563 69.1275 40.767C67.5295 40.1717 66.2135 39.6077 65.1795 39.075C64.1455 38.5423 63.2682 37.806 62.5475 36.866C61.8269 35.8947 61.4665 34.6727 61.4665 33.2C61.4665 31.7587 61.8739 30.474 62.6885 29.346C63.5345 28.218 64.6939 27.3563 66.1665 26.761C67.6705 26.1343 69.3782 25.821 71.2895 25.821C73.9215 25.821 76.0835 26.479 77.7755 27.795C79.4675 29.111 80.3135 30.8343 80.3135 32.965C80.3135 33.3723 80.2979 33.6857 80.2665 33.905H76.1775L76.2245 33.341C76.2245 32.0877 75.7389 31.1007 74.7675 30.38C73.8275 29.628 72.5742 29.252 71.0075 29.252C69.4722 29.252 68.2032 29.5967 67.2005 30.286C66.2292 30.9753 65.7435 31.8997 65.7435 33.059C65.7435 34.1557 66.1979 35.0173 67.1065 35.644C68.0152 36.2707 69.4252 36.96 71.3365 37.712C72.9345 38.3387 74.2192 38.9183 75.1905 39.451C76.1619 39.9523 76.9922 40.6573 77.6815 41.566C78.3709 42.4747 78.7155 43.6183 78.7155 44.997C78.7155 46.501 78.2612 47.817 77.3525 48.945C76.4752 50.073 75.2532 50.9347 73.6865 51.53C72.1199 52.1253 70.3495 52.423 68.3755 52.423ZM95.1872 52.423C93.0252 52.423 91.1139 51.9843 89.4532 51.107C87.8239 50.1983 86.5549 48.945 85.6462 47.347C84.7375 45.7177 84.2832 43.8377 84.2832 41.707C84.2832 38.793 84.9569 36.1297 86.3042 33.717C87.6515 31.273 89.5002 29.346 91.8502 27.936C94.2315 26.526 96.8792 25.821 99.7932 25.821C101.955 25.821 103.867 26.2753 105.527 27.184C107.219 28.0613 108.52 29.3147 109.428 30.944C110.368 32.542 110.838 34.422 110.838 36.584C110.838 39.498 110.149 42.1613 108.77 44.574C107.392 46.9867 105.512 48.898 103.13 50.308C100.749 51.718 98.1012 52.423 95.1872 52.423ZM95.7042 48.804C97.7409 48.804 99.5739 48.2557 101.203 47.159C102.833 46.031 104.102 44.5583 105.01 42.741C105.95 40.8923 106.42 38.9183 106.42 36.819C106.42 34.4377 105.731 32.6203 104.352 31.367C102.974 30.0823 101.25 29.44 99.1822 29.44C97.1455 29.44 95.3282 30.004 93.7302 31.132C92.1322 32.2287 90.8945 33.7013 90.0172 35.55C89.1399 37.3987 88.7012 39.3883 88.7012 41.519C88.7012 43.8377 89.3592 45.6393 90.6752 46.924C91.9912 48.1773 93.6675 48.804 95.7042 48.804ZM141.325 26.244L136.766 52H132.489L133.147 48.24C132.113 49.556 130.797 50.5743 129.199 51.295C127.601 52.0157 125.94 52.376 124.217 52.376C121.522 52.376 119.36 51.6553 117.731 50.214C116.133 48.7413 115.334 46.642 115.334 43.916C115.334 43.2267 115.412 42.365 115.569 41.331L118.248 26.244H122.478L119.94 40.767C119.814 41.425 119.752 42.1143 119.752 42.835C119.752 44.7463 120.269 46.2033 121.303 47.206C122.368 48.1773 123.841 48.663 125.721 48.663C127.977 48.663 129.888 47.958 131.455 46.548C133.053 45.138 134.071 43.0857 134.51 40.391V40.532L137.048 26.244H141.325ZM151.977 31.132C153.011 29.44 154.311 28.124 155.878 27.184C157.445 26.244 159.231 25.774 161.236 25.774L160.437 30.192H159.309C157.084 30.192 155.22 30.7873 153.716 31.978C152.243 33.1687 151.256 35.174 150.755 37.994L148.264 52H143.987L148.546 26.244H152.823L151.977 31.132ZM162.178 39.075C162.648 36.4117 163.588 34.093 164.998 32.119C166.44 30.1137 168.21 28.5627 170.309 27.466C172.409 26.3693 174.68 25.821 177.124 25.821C180.289 25.821 182.749 26.5887 184.503 28.124C186.289 29.6593 187.276 31.79 187.464 34.516H182.858C182.702 32.9493 182.059 31.7117 180.931 30.803C179.835 29.8943 178.346 29.44 176.466 29.44C174.022 29.44 171.892 30.286 170.074 31.978C168.288 33.6387 167.129 36.0043 166.596 39.075C166.44 40.109 166.361 40.9707 166.361 41.66C166.361 43.9473 166.972 45.7177 168.194 46.971C169.416 48.193 171.046 48.804 173.082 48.804C174.962 48.804 176.592 48.3653 177.97 47.488C179.38 46.6107 180.461 45.3573 181.213 43.728H185.819C184.691 46.36 182.952 48.475 180.602 50.073C178.252 51.6397 175.526 52.423 172.424 52.423C169.197 52.423 166.628 51.4987 164.716 49.65C162.836 47.8013 161.896 45.279 161.896 42.083C161.896 41.1117 161.99 40.109 162.178 39.075ZM205.814 25.821C207.976 25.821 209.841 26.244 211.407 27.09C213.005 27.9047 214.212 29.064 215.026 30.568C215.872 32.0407 216.295 33.7327 216.295 35.644C216.295 36.302 216.217 37.101 216.06 38.041C215.935 38.8557 215.731 39.7017 215.449 40.579H194.863C194.801 41.2057 194.769 41.66 194.769 41.942C194.769 44.104 195.412 45.796 196.696 47.018C198.012 48.2087 199.72 48.804 201.819 48.804C203.668 48.804 205.282 48.381 206.66 47.535C208.07 46.6577 209.136 45.4983 209.856 44.057H214.462C213.334 46.5323 211.595 48.5533 209.245 50.12C206.927 51.6553 204.232 52.423 201.161 52.423C197.934 52.423 195.333 51.4987 193.359 49.65C191.417 47.77 190.445 45.2163 190.445 41.989C190.445 41.0803 190.539 40.109 190.727 39.075C191.197 36.4117 192.153 34.0773 193.594 32.072C195.036 30.0667 196.806 28.5313 198.905 27.466C201.036 26.3693 203.339 25.821 205.814 25.821ZM211.736 37.477C211.83 36.8503 211.877 36.2707 211.877 35.738C211.877 33.7327 211.235 32.1817 209.95 31.085C208.697 29.9883 207.052 29.44 205.015 29.44C202.822 29.44 200.832 30.1607 199.046 31.602C197.26 33.012 196.054 34.9703 195.427 37.477H211.736ZM228.286 52.423C225.591 52.423 223.382 51.7807 221.659 50.496C219.935 49.2113 219.074 47.488 219.074 45.326C219.074 44.9187 219.089 44.621 219.121 44.433H223.304C223.178 45.7803 223.57 46.877 224.479 47.723C225.419 48.569 226.766 48.992 228.521 48.992C230.275 48.992 231.685 48.663 232.751 48.005C233.847 47.3157 234.396 46.36 234.396 45.138C234.396 44.104 233.957 43.2893 233.08 42.694C232.202 42.0987 230.855 41.4563 229.038 40.767C227.44 40.1717 226.124 39.6077 225.09 39.075C224.056 38.5423 223.178 37.806 222.458 36.866C221.737 35.8947 221.377 34.6727 221.377 33.2C221.377 31.7587 221.784 30.474 222.599 29.346C223.445 28.218 224.604 27.3563 226.077 26.761C227.581 26.1343 229.288 25.821 231.2 25.821C233.832 25.821 235.994 26.479 237.686 27.795C239.378 29.111 240.224 30.8343 240.224 32.965C240.224 33.3723 240.208 33.6857 240.177 33.905H236.088L236.135 33.341C236.135 32.0877 235.649 31.1007 234.678 30.38C233.738 29.628 232.484 29.252 230.918 29.252C229.382 29.252 228.113 29.5967 227.111 30.286C226.139 30.9753 225.654 31.8997 225.654 33.059C225.654 34.1557 226.108 35.0173 227.017 35.644C227.925 36.2707 229.335 36.96 231.247 37.712C232.845 38.3387 234.129 38.9183 235.101 39.451C236.072 39.9523 236.902 40.6573 237.592 41.566C238.281 42.4747 238.626 43.6183 238.626 44.997C238.626 46.501 238.171 47.817 237.263 48.945C236.385 50.073 235.163 50.9347 233.597 51.53C232.03 52.1253 230.26 52.423 228.286 52.423ZM268.582 32.448H264.258V52H256.221V32.448H253.307V25.774H256.221V25.022C256.221 21.7947 257.146 19.3507 258.994 17.69C260.843 15.998 263.553 15.152 267.125 15.152C267.721 15.152 268.159 15.1677 268.441 15.199V22.014C266.906 21.92 265.825 22.1393 265.198 22.672C264.572 23.2047 264.258 24.1603 264.258 25.539V25.774H268.582V32.448ZM284.297 52.376C281.727 52.376 279.409 51.8277 277.341 50.731C275.304 49.6343 273.69 48.0677 272.5 46.031C271.34 43.9943 270.761 41.613 270.761 38.887C270.761 36.1923 271.356 33.8267 272.547 31.79C273.737 29.722 275.367 28.1397 277.435 27.043C279.503 25.9463 281.821 25.398 284.391 25.398C286.96 25.398 289.279 25.9463 291.347 27.043C293.415 28.1397 295.044 29.722 296.235 31.79C297.425 33.8267 298.021 36.1923 298.021 38.887C298.021 41.5817 297.41 43.963 296.188 46.031C294.997 48.0677 293.352 49.6343 291.253 50.731C289.185 51.8277 286.866 52.376 284.297 52.376ZM284.297 45.42C285.832 45.42 287.132 44.856 288.198 43.728C289.294 42.6 289.843 40.9863 289.843 38.887C289.843 36.7877 289.31 35.174 288.245 34.046C287.211 32.918 285.926 32.354 284.391 32.354C282.824 32.354 281.524 32.918 280.49 34.046C279.456 35.1427 278.939 36.7563 278.939 38.887C278.939 40.9863 279.44 42.6 280.443 43.728C281.477 44.856 282.761 45.42 284.297 45.42ZM310.322 30.145C311.262 28.7037 312.437 27.5757 313.847 26.761C315.257 25.915 316.823 25.492 318.547 25.492V33.999H316.338C314.332 33.999 312.828 34.4377 311.826 35.315C310.823 36.161 310.322 37.665 310.322 39.827V52H302.285V25.774H310.322V30.145ZM361.864 52H353.827L340.385 31.649V52H332.348V19.006H340.385L353.827 39.451V19.006H361.864V52ZM392.412 38.464C392.412 39.216 392.365 39.9993 392.271 40.814H374.082C374.207 42.4433 374.724 43.6967 375.633 44.574C376.573 45.42 377.717 45.843 379.064 45.843C381.069 45.843 382.464 44.997 383.247 43.305H391.801C391.362 45.0283 390.563 46.5793 389.404 47.958C388.276 49.3367 386.85 50.4177 385.127 51.201C383.404 51.9843 381.477 52.376 379.346 52.376C376.777 52.376 374.489 51.8277 372.484 50.731C370.479 49.6343 368.912 48.0677 367.784 46.031C366.656 43.9943 366.092 41.613 366.092 38.887C366.092 36.161 366.64 33.7797 367.737 31.743C368.865 29.7063 370.432 28.1397 372.437 27.043C374.442 25.9463 376.745 25.398 379.346 25.398C381.884 25.398 384.14 25.9307 386.114 26.996C388.088 28.0613 389.623 29.581 390.72 31.555C391.848 33.529 392.412 35.832 392.412 38.464ZM384.187 36.349C384.187 34.9703 383.717 33.8737 382.777 33.059C381.837 32.2443 380.662 31.837 379.252 31.837C377.905 31.837 376.761 32.2287 375.821 33.012C374.912 33.7953 374.348 34.9077 374.129 36.349H384.187ZM434.299 25.774L427.202 52H418.319L414.183 34.986L409.906 52H401.07L393.926 25.774H401.963L405.676 44.527L410.094 25.774H418.601L423.066 44.433L426.732 25.774H434.299ZM448.033 52.376C445.745 52.376 443.709 51.9843 441.923 51.201C440.137 50.4177 438.727 49.3523 437.693 48.005C436.659 46.6263 436.079 45.091 435.954 43.399H443.897C443.991 44.3077 444.414 45.044 445.166 45.608C445.918 46.172 446.842 46.454 447.939 46.454C448.941 46.454 449.709 46.266 450.242 45.89C450.806 45.4827 451.088 44.9657 451.088 44.339C451.088 43.587 450.696 43.0387 449.913 42.694C449.129 42.318 447.86 41.9107 446.106 41.472C444.226 41.0333 442.659 40.579 441.406 40.109C440.152 39.6077 439.071 38.84 438.163 37.806C437.254 36.7407 436.8 35.315 436.8 33.529C436.8 32.025 437.207 30.662 438.022 29.44C438.868 28.1867 440.09 27.1997 441.688 26.479C443.317 25.7583 445.244 25.398 447.469 25.398C450.759 25.398 453.344 26.2127 455.224 27.842C457.135 29.4713 458.232 31.6333 458.514 34.328H451.088C450.962 33.4193 450.555 32.6987 449.866 32.166C449.208 31.6333 448.33 31.367 447.234 31.367C446.294 31.367 445.573 31.555 445.072 31.931C444.57 32.2757 444.32 32.7613 444.32 33.388C444.32 34.14 444.711 34.704 445.495 35.08C446.309 35.456 447.563 35.832 449.255 36.208C451.197 36.7093 452.78 37.2107 454.002 37.712C455.224 38.182 456.289 38.9653 457.198 40.062C458.138 41.1273 458.623 42.5687 458.655 44.386C458.655 45.9213 458.216 47.3 457.339 48.522C456.493 49.7127 455.255 50.6527 453.626 51.342C452.028 52.0313 450.163 52.376 448.033 52.376Z" fill="black"/>
<path d="M92.2505 95H89.6115L78.9975 78.905V95H76.3585V74.758H78.9975L89.6115 90.824V74.758H92.2505V95ZM111.249 86.445C111.249 86.9477 111.22 87.4793 111.162 88.04H98.4601C98.5568 89.606 99.0884 90.8337 100.055 91.723C101.041 92.593 102.23 93.028 103.622 93.028C104.763 93.028 105.71 92.767 106.464 92.245C107.237 91.7037 107.779 90.9883 108.088 90.099H110.93C110.505 91.6263 109.654 92.8733 108.378 93.84C107.102 94.7873 105.517 95.261 103.622 95.261C102.114 95.261 100.761 94.9227 99.5621 94.246C98.3828 93.5693 97.4548 92.6123 96.7781 91.375C96.1014 90.1183 95.7631 88.6683 95.7631 87.025C95.7631 85.3817 96.0918 83.9413 96.7491 82.704C97.4064 81.4667 98.3248 80.5193 99.5041 79.862C100.703 79.1853 102.075 78.847 103.622 78.847C105.13 78.847 106.464 79.1757 107.624 79.833C108.784 80.4903 109.673 81.399 110.292 82.559C110.93 83.6997 111.249 84.995 111.249 86.445ZM108.523 85.894C108.523 84.8887 108.301 84.0283 107.856 83.313C107.411 82.5783 106.802 82.0273 106.029 81.66C105.275 81.2733 104.434 81.08 103.506 81.08C102.172 81.08 101.031 81.5053 100.084 82.356C99.1561 83.2067 98.6244 84.386 98.4891 85.894H108.523ZM135.903 79.108L130.944 95H128.218L124.39 82.385L120.562 95H117.836L112.848 79.108H115.545L119.199 92.448L123.143 79.108H125.84L129.697 92.477L133.293 79.108H135.903ZM144.148 95.261C142.93 95.261 141.837 95.058 140.871 94.652C139.904 94.2267 139.14 93.6467 138.58 92.912C138.019 92.158 137.71 91.2977 137.652 90.331H140.378C140.455 91.1237 140.822 91.7713 141.48 92.274C142.156 92.7767 143.036 93.028 144.119 93.028C145.124 93.028 145.917 92.8057 146.497 92.361C147.077 91.9163 147.367 91.3557 147.367 90.679C147.367 89.983 147.057 89.4707 146.439 89.142C145.82 88.794 144.863 88.4557 143.568 88.127C142.388 87.8177 141.422 87.5083 140.668 87.199C139.933 86.8703 139.295 86.3967 138.754 85.778C138.232 85.14 137.971 84.3087 137.971 83.284C137.971 82.472 138.212 81.7277 138.696 81.051C139.179 80.3743 139.865 79.8427 140.755 79.456C141.644 79.05 142.659 78.847 143.8 78.847C145.559 78.847 146.98 79.2917 148.063 80.181C149.145 81.0703 149.725 82.2883 149.803 83.835H147.164C147.106 83.0037 146.767 82.3367 146.149 81.834C145.549 81.3313 144.737 81.08 143.713 81.08C142.765 81.08 142.011 81.283 141.451 81.689C140.89 82.095 140.61 82.6267 140.61 83.284C140.61 83.806 140.774 84.241 141.103 84.589C141.451 84.9177 141.876 85.1883 142.379 85.401C142.901 85.5943 143.616 85.8167 144.525 86.068C145.665 86.3773 146.593 86.6867 147.309 86.996C148.024 87.286 148.633 87.7307 149.136 88.33C149.658 88.9293 149.928 89.7123 149.948 90.679C149.948 91.549 149.706 92.332 149.223 93.028C148.739 93.724 148.053 94.275 147.164 94.681C146.294 95.0677 145.288 95.261 144.148 95.261ZM164.043 82.037C164.565 81.1283 165.339 80.3743 166.363 79.775C167.407 79.1563 168.616 78.847 169.988 78.847C171.4 78.847 172.676 79.1853 173.816 79.862C174.976 80.5387 175.885 81.4957 176.542 82.733C177.2 83.951 177.528 85.372 177.528 86.996C177.528 88.6007 177.2 90.0313 176.542 91.288C175.885 92.5447 174.976 93.521 173.816 94.217C172.676 94.913 171.4 95.261 169.988 95.261C168.635 95.261 167.436 94.9613 166.392 94.362C165.368 93.7433 164.585 92.9797 164.043 92.071V102.54H161.404V79.108H164.043V82.037ZM174.831 86.996C174.831 85.7973 174.59 84.7533 174.106 83.864C173.623 82.9747 172.966 82.298 172.134 81.834C171.322 81.37 170.423 81.138 169.437 81.138C168.471 81.138 167.572 81.3797 166.74 81.863C165.928 82.327 165.271 83.0133 164.768 83.922C164.285 84.8113 164.043 85.8457 164.043 87.025C164.043 88.2237 164.285 89.2773 164.768 90.186C165.271 91.0753 165.928 91.7617 166.74 92.245C167.572 92.709 168.471 92.941 169.437 92.941C170.423 92.941 171.322 92.709 172.134 92.245C172.966 91.7617 173.623 91.0753 174.106 90.186C174.59 89.2773 174.831 88.214 174.831 86.996ZM187.933 95.261C186.444 95.261 185.091 94.9227 183.873 94.246C182.674 93.5693 181.727 92.6123 181.031 91.375C180.354 90.1183 180.016 88.6683 180.016 87.025C180.016 85.401 180.364 83.9703 181.06 82.733C181.775 81.4763 182.742 80.5193 183.96 79.862C185.178 79.1853 186.541 78.847 188.049 78.847C189.557 78.847 190.92 79.1853 192.138 79.862C193.356 80.5193 194.313 81.4667 195.009 82.704C195.724 83.9413 196.082 85.3817 196.082 87.025C196.082 88.6683 195.715 90.1183 194.98 91.375C194.265 92.6123 193.288 93.5693 192.051 94.246C190.814 94.9227 189.441 95.261 187.933 95.261ZM187.933 92.941C188.88 92.941 189.77 92.7187 190.601 92.274C191.432 91.8293 192.099 91.1623 192.602 90.273C193.124 89.3837 193.385 88.301 193.385 87.025C193.385 85.749 193.134 84.6663 192.631 83.777C192.128 82.8877 191.471 82.2303 190.659 81.805C189.847 81.3603 188.967 81.138 188.02 81.138C187.053 81.138 186.164 81.3603 185.352 81.805C184.559 82.2303 183.921 82.8877 183.438 83.777C182.955 84.6663 182.713 85.749 182.713 87.025C182.713 88.3203 182.945 89.4127 183.409 90.302C183.892 91.1913 184.53 91.8583 185.323 92.303C186.116 92.7283 186.986 92.941 187.933 92.941ZM202.191 81.689C202.655 80.7803 203.312 80.0747 204.163 79.572C205.033 79.0693 206.087 78.818 207.324 78.818V81.544H206.628C203.67 81.544 202.191 83.1487 202.191 86.358V95H199.552V79.108H202.191V81.689ZM213.589 81.283V90.65C213.589 91.4233 213.754 91.9743 214.082 92.303C214.411 92.6123 214.981 92.767 215.793 92.767H217.736V95H215.358C213.889 95 212.787 94.6617 212.052 93.985C211.318 93.3083 210.95 92.1967 210.95 90.65V81.283H208.891V79.108H210.95V75.106H213.589V79.108H217.736V81.283H213.589ZM219.948 86.996C219.948 85.372 220.276 83.951 220.934 82.733C221.591 81.4957 222.49 80.5387 223.631 79.862C224.791 79.1853 226.076 78.847 227.488 78.847C228.88 78.847 230.088 79.1467 231.113 79.746C232.137 80.3453 232.901 81.0993 233.404 82.008V79.108H236.072V95H233.404V92.042C232.882 92.97 232.099 93.7433 231.055 94.362C230.03 94.9613 228.831 95.261 227.459 95.261C226.047 95.261 224.771 94.913 223.631 94.217C222.49 93.521 221.591 92.5447 220.934 91.288C220.276 90.0313 219.948 88.6007 219.948 86.996ZM233.404 87.025C233.404 85.8263 233.162 84.7823 232.679 83.893C232.195 83.0037 231.538 82.327 230.707 81.863C229.895 81.3797 228.996 81.138 228.01 81.138C227.024 81.138 226.125 81.37 225.313 81.834C224.501 82.298 223.853 82.9747 223.37 83.864C222.886 84.7533 222.645 85.7973 222.645 86.996C222.645 88.214 222.886 89.2773 223.37 90.186C223.853 91.0753 224.501 91.7617 225.313 92.245C226.125 92.709 227.024 92.941 228.01 92.941C228.996 92.941 229.895 92.709 230.707 92.245C231.538 91.7617 232.195 91.0753 232.679 90.186C233.162 89.2773 233.404 88.2237 233.404 87.025ZM243.17 73.54V95H240.531V73.54H243.17ZM280.804 74.787L274.946 95H271.988L267.29 78.731L262.418 95L259.489 95.029L253.834 74.787H256.647L261.055 91.926L265.927 74.787H268.885L273.525 91.868L277.962 74.787H280.804ZM298.191 86.445C298.191 86.9477 298.162 87.4793 298.104 88.04H285.402C285.499 89.606 286.031 90.8337 286.997 91.723C287.983 92.593 289.172 93.028 290.564 93.028C291.705 93.028 292.652 92.767 293.406 92.245C294.18 91.7037 294.721 90.9883 295.03 90.099H297.872C297.447 91.6263 296.596 92.8733 295.32 93.84C294.044 94.7873 292.459 95.261 290.564 95.261C289.056 95.261 287.703 94.9227 286.504 94.246C285.325 93.5693 284.397 92.6123 283.72 91.375C283.044 90.1183 282.705 88.6683 282.705 87.025C282.705 85.3817 283.034 83.9413 283.691 82.704C284.349 81.4667 285.267 80.5193 286.446 79.862C287.645 79.1853 289.018 78.847 290.564 78.847C292.072 78.847 293.406 79.1757 294.566 79.833C295.726 80.4903 296.616 81.399 297.234 82.559C297.872 83.6997 298.191 84.995 298.191 86.445ZM295.465 85.894C295.465 84.8887 295.243 84.0283 294.798 83.313C294.354 82.5783 293.745 82.0273 292.971 81.66C292.217 81.2733 291.376 81.08 290.448 81.08C289.114 81.08 287.974 81.5053 287.026 82.356C286.098 83.2067 285.567 84.386 285.431 85.894H295.465ZM304.314 82.066C304.855 81.1187 305.648 80.3453 306.692 79.746C307.736 79.1467 308.925 78.847 310.259 78.847C311.69 78.847 312.975 79.1853 314.116 79.862C315.257 80.5387 316.156 81.4957 316.813 82.733C317.47 83.951 317.799 85.372 317.799 86.996C317.799 88.6007 317.47 90.0313 316.813 91.288C316.156 92.5447 315.247 93.521 314.087 94.217C312.946 94.913 311.67 95.261 310.259 95.261C308.886 95.261 307.678 94.9613 306.634 94.362C305.609 93.7627 304.836 92.999 304.314 92.071V95H301.675V73.54H304.314V82.066ZM315.102 86.996C315.102 85.7973 314.86 84.7533 314.377 83.864C313.894 82.9747 313.236 82.298 312.405 81.834C311.593 81.37 310.694 81.138 309.708 81.138C308.741 81.138 307.842 81.3797 307.011 81.863C306.199 82.327 305.542 83.0133 305.039 83.922C304.556 84.8113 304.314 85.8457 304.314 87.025C304.314 88.2237 304.556 89.2773 305.039 90.186C305.542 91.0753 306.199 91.7617 307.011 92.245C307.842 92.709 308.741 92.941 309.708 92.941C310.694 92.941 311.593 92.709 312.405 92.245C313.236 91.7617 313.894 91.0753 314.377 90.186C314.86 89.2773 315.102 88.214 315.102 86.996ZM326.899 95.261C325.681 95.261 324.588 95.058 323.622 94.652C322.655 94.2267 321.891 93.6467 321.331 92.912C320.77 92.158 320.461 91.2977 320.403 90.331H323.129C323.206 91.1237 323.573 91.7713 324.231 92.274C324.907 92.7767 325.787 93.028 326.87 93.028C327.875 93.028 328.668 92.8057 329.248 92.361C329.828 91.9163 330.118 91.3557 330.118 90.679C330.118 89.983 329.808 89.4707 329.19 89.142C328.571 88.794 327.614 88.4557 326.319 88.127C325.139 87.8177 324.173 87.5083 323.419 87.199C322.684 86.8703 322.046 86.3967 321.505 85.778C320.983 85.14 320.722 84.3087 320.722 83.284C320.722 82.472 320.963 81.7277 321.447 81.051C321.93 80.3743 322.616 79.8427 323.506 79.456C324.395 79.05 325.41 78.847 326.551 78.847C328.31 78.847 329.731 79.2917 330.814 80.181C331.896 81.0703 332.476 82.2883 332.554 83.835H329.915C329.857 83.0037 329.518 82.3367 328.9 81.834C328.3 81.3313 327.488 81.08 326.464 81.08C325.516 81.08 324.762 81.283 324.202 81.689C323.641 82.095 323.361 82.6267 323.361 83.284C323.361 83.806 323.525 84.241 323.854 84.589C324.202 84.9177 324.627 85.1883 325.13 85.401C325.652 85.5943 326.367 85.8167 327.276 86.068C328.416 86.3773 329.344 86.6867 330.06 86.996C330.775 87.286 331.384 87.7307 331.887 88.33C332.409 88.9293 332.679 89.7123 332.699 90.679C332.699 91.549 332.457 92.332 331.974 93.028C331.49 93.724 330.804 94.275 329.915 94.681C329.045 95.0677 328.039 95.261 326.899 95.261ZM337.787 76.527C337.284 76.527 336.859 76.353 336.511 76.005C336.163 75.657 335.989 75.2317 335.989 74.729C335.989 74.2263 336.163 73.801 336.511 73.453C336.859 73.105 337.284 72.931 337.787 72.931C338.27 72.931 338.676 73.105 339.005 73.453C339.353 73.801 339.527 74.2263 339.527 74.729C339.527 75.2317 339.353 75.657 339.005 76.005C338.676 76.353 338.27 76.527 337.787 76.527ZM339.063 79.108V95H336.424V79.108H339.063ZM346.78 81.283V90.65C346.78 91.4233 346.944 91.9743 347.273 92.303C347.601 92.6123 348.172 92.767 348.984 92.767H350.927V95H348.549C347.079 95 345.977 94.6617 345.243 93.985C344.508 93.3083 344.141 92.1967 344.141 90.65V81.283H342.082V79.108H344.141V75.106H346.78V79.108H350.927V81.283H346.78ZM368.624 86.445C368.624 86.9477 368.595 87.4793 368.537 88.04H355.835C355.932 89.606 356.463 90.8337 357.43 91.723C358.416 92.593 359.605 93.028 360.997 93.028C362.138 93.028 363.085 92.767 363.839 92.245C364.612 91.7037 365.154 90.9883 365.463 90.099H368.305C367.88 91.6263 367.029 92.8733 365.753 93.84C364.477 94.7873 362.892 95.261 360.997 95.261C359.489 95.261 358.136 94.9227 356.937 94.246C355.758 93.5693 354.83 92.6123 354.153 91.375C353.476 90.1183 353.138 88.6683 353.138 87.025C353.138 85.3817 353.467 83.9413 354.124 82.704C354.781 81.4667 355.7 80.5193 356.879 79.862C358.078 79.1853 359.45 78.847 360.997 78.847C362.505 78.847 363.839 79.1757 364.999 79.833C366.159 80.4903 367.048 81.399 367.667 82.559C368.305 83.6997 368.624 84.995 368.624 86.445ZM365.898 85.894C365.898 84.8887 365.676 84.0283 365.231 83.313C364.786 82.5783 364.177 82.0273 363.404 81.66C362.65 81.2733 361.809 81.08 360.881 81.08C359.547 81.08 358.406 81.5053 357.459 82.356C356.531 83.2067 355.999 84.386 355.864 85.894H365.898Z" fill="black"/>
</svg>
